<?xml version="1.0" standalone="no"?><!DOCTYPE svg PUBLIC "-//W3C//DTD SVG 1.1//EN" "http://www.w3.org/Graphics/SVG/1.1/DTD/svg11.dtd"><svg t="1710226075342" class="icon" viewBox="0 0 1024 1024" version="1.1" xmlns="http://www.w3.org/2000/svg" p-id="2643" xmlns:xlink="http://www.w3.org/1999/xlink" width="200" height="200"><path d="M480 945.066667H469.333333C253.866667 938.666667 76.8 761.6 70.4 548.266667 64 326.4 232.533333 140.8 454.4 128c14.933333 0 27.733333 4.266667 38.4 14.933333 12.8 10.666667 19.2 23.466667 19.2 38.4v322.133334H836.266667c14.933333 0 29.866667 6.4 38.4 17.066666 10.666667 10.666667 14.933333 25.6 14.933333 40.533334-14.933333 217.6-194.133333 384-409.6 384zM448 192c-181.333333 17.066667-317.866667 170.666667-313.6 354.133333 4.266667 179.2 155.733333 330.666667 334.933333 334.933334 183.466667 4.266667 337.066667-132.266667 354.133334-313.6H507.733333c-32 0-59.733333-25.6-59.733333-59.733334V192z m407.466667 366.933333z" fill="#543E3E" p-id="2644"></path><path d="M908.8 443.733333h-277.333333c-25.6 0-49.066667-21.333333-49.066667-49.066666V123.733333c0-12.8 4.266667-23.466667 14.933333-32 8.533333-8.533333 21.333333-12.8 34.133334-12.8 164.266667 12.8 309.333333 155.733333 322.133333 315.733334 0 12.8-4.266667 23.466667-10.666667 34.133333-8.533333 8.533333-21.333333 14.933333-34.133333 14.933333z m-19.2-42.666666z m-241.066667-21.333334h238.933334c-19.2-115.2-123.733333-215.466667-238.933334-234.666666v234.666666z" fill="#FFBB12" p-id="2645"></path></svg>